<?xml version="1.0" encoding="UTF-8"?>
<svg version="1.1" xmlns="http://www.w3.org/2000/svg" width="256" height="256">
<path d="M0 0 C0.9025038 -0.00438225 1.8050076 -0.00876451 2.73486 -0.01327956 C5.75944516 -0.0266359 8.7840012 -0.03283919 11.80860901 -0.03897095 C13.97692495 -0.04687411 16.14523959 -0.0551432 18.31355286 -0.06375122 C25.43241627 -0.08993622 32.55128549 -0.10527066 39.67018127 -0.11953735 C42.12080959 -0.12489759 44.57143787 -0.1302751 47.02206612 -0.13566971 C57.21248458 -0.15728905 67.40290148 -0.17602771 77.59333706 -0.1872921 C92.20186567 -0.20354682 106.81012899 -0.2367726 121.41855758 -0.29369295 C131.68958018 -0.33235155 141.96053168 -0.35191969 152.23162514 -0.35721266 C158.36761555 -0.36087033 164.50332278 -0.37293702 170.63923454 -0.4053154 C176.40868424 -0.43532562 182.1776783 -0.44173285 187.94718933 -0.42993164 C190.06520343 -0.42971035 192.18323827 -0.43806107 194.30117989 -0.45558548 C197.1917355 -0.47820251 200.08062826 -0.47001673 202.97119141 -0.45410156 C204.2297093 -0.47492469 204.2297093 -0.47492469 205.51365179 -0.49616849 C209.66796454 -0.4397674 212.26478675 -0.08768446 215.55395603 2.56690025 C219.15482888 6.30035386 219.1790618 8.03960432 219.21644592 13.12454224 C219.22793671 14.39757202 219.23942749 15.67060181 219.25126648 16.98220825 C219.25889182 18.40109174 219.26636343 19.81997606 219.2736969 21.23886108 C219.28486973 22.72694142 219.29638298 24.21501922 219.30821228 25.70309448 C219.34479946 30.59811899 219.36999245 35.49316942 219.39283752 40.38827515 C219.39678339 41.22080968 219.40072926 42.05334421 219.40479469 42.91110706 C219.44121372 50.76148522 219.47266118 58.61187231 219.49390411 66.46230698 C219.52148516 76.50697389 219.57226051 86.55093509 219.65437841 96.59530807 C219.71015121 103.65609862 219.73913737 110.71669758 219.74837732 117.77770066 C219.75463787 121.99577966 219.77278463 126.2130315 219.81976318 130.43087006 C219.86342968 134.40054719 219.87391921 138.36894495 219.85913467 142.33882141 C219.85946337 143.79410932 219.87174381 145.24945213 219.8969841 146.70452118 C220.07272969 157.40248658 220.07272969 157.40248658 217.76115322 161.35750771 C214.1089461 164.95665399 210.36051881 165.85713901 205.33970642 165.96388245 C204.0870549 165.94555107 204.0870549 165.94555107 202.80909729 165.92684937 C201.91074661 165.9374791 201.01239594 165.94810883 200.08682251 165.95906067 C197.13746911 165.98701401 194.18991791 165.97307829 191.24049377 165.95858765 C189.18781986 165.96984267 187.13515881 165.98372544 185.08251953 166.00012207 C179.69509814 166.03612531 174.30824465 166.0365379 168.92073059 166.02944946 C163.41718925 166.02853588 157.91385997 166.06140478 152.41041565 166.09140015 C141.62324678 166.14522985 130.83637589 166.16144808 120.04908752 166.15390015 C120.66647393 168.05875157 121.28846954 169.96210943 121.91236877 171.86483765 C122.25824036 172.92493042 122.60411194 173.98502319 122.96046448 175.07723999 C125.7686482 183.01371258 130.116771 188.69709302 135.86549377 194.79452515 C141.95498949 201.37423071 141.95498949 201.37423071 142.48658752 205.77890015 C142.04908752 209.15390015 142.04908752 209.15390015 140.98756409 210.83958435 C138.03692398 212.84016201 135.03986212 212.57967038 131.59596252 212.55795288 C130.83956482 212.56481613 130.08316711 212.57167938 129.30384827 212.57875061 C126.80207075 212.59706124 124.30091771 212.5931756 121.79908752 212.5874939 C120.06178075 212.59205334 118.32447579 212.5973582 116.58717346 212.6033783 C112.94549737 212.61231751 109.30404049 212.60987674 105.66236877 212.59994507 C100.99124658 212.58844836 96.32087953 212.60867311 91.64985657 212.63786221 C88.06222209 212.6561904 84.47476975 212.65593865 80.88710022 212.65022469 C79.16467733 212.65007109 77.44224238 212.65614719 75.71986389 212.66851616 C73.3134951 212.68336292 70.90853658 212.67279762 68.50221252 212.65560913 C67.78835388 212.6652771 67.07449524 212.67494507 66.33900452 212.68490601 C63.13208922 212.63683772 61.48009991 212.56718174 59.11695862 210.30125427 C57.59815197 207.2471256 57.4692216 205.53224942 58.04908752 202.15390015 C59.86667618 199.83632756 61.57977629 197.93145675 63.67408752 195.90390015 C70.51406075 188.87292767 75.15032711 182.27570932 78.20533752 172.8453064 C78.55402893 171.77610962 78.90272034 170.70691284 79.26197815 169.60531616 C79.52172424 168.79634888 79.78147034 167.98738159 80.04908752 167.15390015 C65.60720464 166.5546002 51.18420339 166.08936287 36.73006439 166.05423355 C34.67684925 166.04841709 32.62370082 166.03830158 30.57051086 166.02667236 C29.89035793 166.02287001 29.210205 166.01906765 28.50944138 166.01515007 C27.13644736 166.00739883 25.76345389 165.99955223 24.39046097 165.99160957 C20.89369812 165.97327811 17.39744683 165.96630336 13.90065002 165.97885132 C11.09789883 165.98826494 8.29605618 165.98196433 5.49339294 165.95777893 C2.8969106 165.93547762 0.30011307 165.93510842 -2.29634094 165.960495 C-3.46351654 165.94415512 -4.63069214 165.92781525 -5.83323669 165.91098022 C-7.35749771 165.9088427 -7.35749771 165.9088427 -8.91255188 165.90666199 C-13.47334371 164.7767138 -16.3862777 163.17985126 -18.95091248 159.15390015 C-19.98740813 154.32770085 -19.88842454 149.52670493 -19.82493591 144.61483765 C-19.83115141 143.12615473 -19.84037469 141.63748179 -19.85237122 140.14883423 C-19.87570011 136.11539007 -19.85517058 132.08326185 -19.82532787 128.04990387 C-19.80011977 123.82463462 -19.81073452 119.59943497 -19.81620789 115.37411499 C-19.81979069 108.2790092 -19.79526537 101.18442298 -19.75364685 94.08944702 C-19.70587047 85.8924238 -19.70061298 77.69622203 -19.71859717 69.49909782 C-19.73508473 61.60635623 -19.72322125 53.71390794 -19.69786835 45.82119751 C-19.68747891 42.46562388 -19.68666096 39.11025055 -19.69351959 35.75466919 C-19.70018755 31.8013649 -19.68189197 27.84893079 -19.64450455 23.89580536 C-19.6347176 22.44705157 -19.6333586 20.99821202 -19.64114761 19.54944611 C-19.69831769 7.25613563 -19.69831769 7.25613563 -16.72099304 3.30770874 C-11.70755733 -0.59036594 -6.09839662 0.00360838 0 0 Z M-15.95091248 8.15390015 C-17.23456675 11.75647137 -17.07337603 15.38216171 -17.06684875 19.18832397 C-17.06703506 20.39960968 -17.06722137 21.61089539 -17.06741333 22.85888672 C-17.06240551 24.19290212 -17.05725865 25.52691701 -17.05198669 26.8609314 C-17.05002659 28.27225702 -17.04844425 29.68358322 -17.04721069 31.09490967 C-17.04106402 35.71877443 -17.0238355 40.34256967 -17.00559998 44.96640015 C-16.99980662 46.56020091 -16.99404018 48.15400178 -16.98830032 49.74780273 C-16.96364251 56.37565896 -16.93611772 63.0034924 -16.90095329 69.63130188 C-16.85067363 79.12341267 -16.81731585 88.61523429 -16.80766475 98.10747623 C-16.79952197 104.78712685 -16.77238119 111.46653686 -16.73105824 118.1460638 C-16.70687329 122.13409411 -16.69099166 126.12175337 -16.69532394 130.10986328 C-16.6989604 133.85960019 -16.67906898 137.60848098 -16.64114571 141.35802078 C-16.63131121 142.73301405 -16.62996196 144.10809846 -16.63777351 145.48310471 C-17.04210589 153.56104301 -17.04210589 153.56104301 -13.61912537 160.46937561 C-10.1219353 162.67725883 -7.77648176 162.81099959 -3.64622498 162.8609314 C-2.9140274 162.87609802 -2.18182983 162.89126465 -1.42744446 162.90689087 C1.02336659 162.95084676 3.47291405 162.95888754 5.92408752 162.96640015 C7.65588243 162.9893052 9.38765435 163.01400901 11.11940002 163.04037476 C17.09591771 163.11951998 23.07211622 163.13846432 29.04908752 163.15390015 C30.81258545 163.16006348 30.81258545 163.16006348 32.61170959 163.16635132 C49.75769017 163.22618585 66.90313818 163.21733441 84.04908752 163.15390015 C83.44199465 165.53714093 82.82770557 167.91813888 82.20924377 170.2984314 C82.03993347 170.96620605 81.87062317 171.63398071 81.69618225 172.32199097 C78.83781612 183.25064465 73.12668709 190.67957789 65.43971252 198.62265015 C62.95836247 201.10795418 62.95836247 201.10795418 61.04908752 204.15390015 C61.44480509 206.94245136 61.44480509 206.94245136 63.04908752 209.15390015 C65.33877856 209.2588892 67.63175634 209.29247573 69.92384338 209.29916382 C70.64254105 209.30252243 71.36123871 209.30588104 72.10171509 209.30934143 C74.48913783 209.31887853 76.87649064 209.32079592 79.26393127 209.3218689 C80.91680938 209.32507958 82.5696872 209.3284435 84.2225647 209.33195496 C87.69200805 209.33795315 91.16142646 209.33979415 94.63087463 209.33920288 C99.0844592 209.33910122 103.53788446 209.35275417 107.99143124 209.36997509 C111.4065627 209.38107411 114.8216554 209.38312274 118.23680305 209.38259315 C119.87910575 209.38377642 121.52140935 209.38821746 123.16369438 209.39592552 C125.4575566 209.40568327 127.75106973 209.40286428 130.04493713 209.39682007 C131.35208176 209.39824509 132.65922638 209.3996701 134.00598145 209.40113831 C137.1591287 209.47554169 137.1591287 209.47554169 139.04908752 207.15390015 C138.79036932 202.98036693 137.48610483 201.19147732 134.42408752 198.46640015 C124.02512752 188.49530433 119.43930787 176.91842494 116.04908752 163.15390015 C117.2281517 163.15247513 118.40721588 163.15105011 119.62200928 163.14958191 C130.73133051 163.13291546 141.84028528 163.09015243 152.94941235 163.02180958 C158.66083215 162.9875127 164.37198369 162.96242536 170.08351135 162.95834351 C175.59507588 162.95406642 181.10603497 162.9256521 186.61741066 162.88046837 C188.72051277 162.86747458 190.82368725 162.86319231 192.92682457 162.86774635 C195.87213461 162.87263885 198.81566597 162.84661937 201.76075745 162.81332397 C202.63110123 162.82194962 203.50144501 162.83057526 204.39816284 162.83946228 C208.61853951 162.75943565 210.55119905 162.50492679 214.08740234 160.01179504 C216.41028695 156.62768421 216.68910245 154.84653511 216.72438049 150.76815796 C216.75857338 148.83591621 216.75857338 148.83591621 216.79345703 146.86463928 C216.7933108 145.44543439 216.79256362 144.02622946 216.79127502 142.60702515 C216.80766304 141.10857398 216.82606977 139.61014373 216.84634399 138.11174011 C216.89417226 134.0539665 216.90970181 129.99667418 216.91729355 125.93864822 C216.92636435 122.55444355 216.95095212 119.17041654 216.97492886 115.78629017 C217.042218 106.04235535 217.05489181 96.29885051 217.04975891 86.55471802 C217.04777818 82.08314237 217.05568925 77.61164935 217.06666183 73.14008904 C217.08912324 63.77634747 217.07248709 54.4135979 217.01277161 45.05001831 C216.99271379 41.83223453 216.98507869 38.61478529 216.98774719 35.39694214 C216.98943689 31.61214159 216.96148037 27.8287009 216.91035271 24.04425621 C216.89625663 22.65895821 216.89219504 21.27351567 216.89898872 19.88816261 C216.90642151 17.99756147 216.87315783 16.10693136 216.83790588 14.21664429 C216.83044846 13.16014175 216.82299103 12.10363922 216.81530762 11.01512146 C215.93234211 7.71794908 214.56428159 6.30334386 211.91205794 4.20870703 C208.44342337 2.2447791 204.91548127 2.46685759 201.0158844 2.51898193 C200.11660973 2.51118198 199.21733505 2.50338203 198.29080963 2.49534571 C195.28273337 2.47542974 192.27592278 2.49118891 189.26783752 2.50692749 C187.10921999 2.50015121 184.95060824 2.49124803 182.79200745 2.4803772 C176.9324985 2.45757879 171.07342963 2.46642272 165.21391296 2.48227262 C159.08278718 2.49492864 152.95169916 2.48319233 146.8205719 2.4753418 C136.5242791 2.46624441 126.2281656 2.47823565 115.93190002 2.50204468 C104.02682374 2.52925594 92.12217559 2.52044186 80.21710968 2.49291265 C69.9969847 2.47022529 59.77698864 2.46701973 49.55684662 2.480106 C43.45221946 2.48790248 37.34779356 2.48893644 31.24317932 2.47242355 C25.50401257 2.45798369 19.76539798 2.46799238 14.02629089 2.49689484 C11.91959042 2.50350814 9.81284351 2.50160387 7.7061615 2.49058151 C4.83090987 2.47692451 1.9574293 2.49404412 -0.91770935 2.51898193 C-1.75214821 2.50782833 -2.58658707 2.49667472 -3.44631195 2.48518312 C-9.26751078 2.58317144 -12.01489326 3.78472804 -15.95091248 8.15390015 Z " fill="#FFFFFF" transform="translate(27.950912475585938,21.846099853515625)"/>
<path d="M0 0 C64.68 0 129.36 0 196 0 C196 40.59 196 81.18 196 123 C131.32 123 66.64 123 0 123 C0 82.41 0 41.82 0 0 Z M3 3 C3 41.61 3 80.22 3 120 C65.7 120 128.4 120 193 120 C193 81.39 193 42.78 193 3 C130.3 3 67.6 3 3 3 Z " fill="#FFFFFF" transform="translate(30,43)"/>
<path d="M0 0 C69.96 0 139.92 0 212 0 C212 45.54 212 91.08 212 138 C142.04 138 72.08 138 0 138 C0 92.46 0 46.92 0 0 Z M3 2 C3 45.89 3 89.78 3 135 C71.31 135 139.62 135 210 135 C210 91.11 210 47.22 210 2 C141.69 2 73.38 2 3 2 Z " fill="#FFFFFF" transform="translate(22,36)"/>
<path d="M0 0 C6.57692308 0.57692308 6.57692308 0.57692308 8 2 C8.4075004 9.75374198 7.19208623 17.06011322 5.8828125 24.6875 C5.55698685 26.63402466 5.55698685 26.63402466 5.22457886 28.61987305 C4.76663627 31.35380031 4.30396557 34.08686685 3.83740234 36.81933594 C3.24352267 40.2978031 2.65808104 43.77761965 2.07577705 47.25804138 C1.51451475 50.61004601 0.94871019 53.96127461 0.3828125 57.3125 C0.17439728 58.5502417 -0.03401794 59.7879834 -0.24874878 61.06323242 C-0.81496063 64.37892798 -1.4002193 67.69022853 -2 71 C-2.16083069 71.91700684 -2.32166138 72.83401367 -2.48736572 73.77880859 C-2.89252589 75.87414447 -3.43312581 77.94251589 -4 80 C-7 82 -7 82 -10.125 81.6875 C-13 81 -13 81 -14 80 C-14.4075004 72.24625802 -13.19208623 64.93988678 -11.8828125 57.3125 C-11.55698685 55.36597534 -11.55698685 55.36597534 -11.22457886 53.38012695 C-10.76663627 50.64619969 -10.30396557 47.91313315 -9.83740234 45.18066406 C-9.24352267 41.7021969 -8.65808104 38.22238035 -8.07577705 34.74195862 C-7.51451475 31.38995399 -6.94871019 28.03872539 -6.3828125 24.6875 C-6.07018967 22.83088745 -6.07018967 22.83088745 -5.75125122 20.93676758 C-2.6240389 2.6240389 -2.6240389 2.6240389 0 0 Z M2 3 C-0.77018867 10.49293545 -2.19749559 17.92072937 -3.48046875 25.79296875 C-3.69988559 27.11102964 -3.91980979 28.42900616 -4.14021301 29.74690247 C-4.59766931 32.49190757 -5.05014169 35.237671 -5.4987793 37.98413086 C-6.07209832 41.49232884 -6.65625475 44.9986159 -7.24392223 48.50443554 C-7.80702838 51.87060999 -8.36227604 55.23806233 -8.91796875 58.60546875 C-9.12729538 59.85869431 -9.33662201 61.11191986 -9.55229187 62.40312195 C-9.74281631 63.57486465 -9.93334076 64.74660736 -10.12963867 65.95385742 C-10.38253914 67.49199348 -10.38253914 67.49199348 -10.64054871 69.061203 C-11.00866615 72.07085261 -11.06283711 74.97107497 -11 78 C-9.68 78 -8.36 78 -7 78 C-4.93385785 69.42898399 -3.18258565 60.86052239 -1.73828125 52.1640625 C-1.54276169 51.00047211 -1.34724213 49.83688171 -1.14579773 48.63803101 C-0.73798217 46.20320108 -0.33222504 43.76802555 0.0715332 41.33251953 C0.68959902 37.61236593 1.31808833 33.8940698 1.94726562 30.17578125 C2.34437947 27.79698 2.74088536 25.41807716 3.13671875 23.0390625 C3.3241716 21.93478912 3.51162445 20.83051575 3.70475769 19.69277954 C4.57536179 14.38945048 5.22782437 9.3751267 5 4 C4.01 3.67 3.02 3.34 2 3 Z " fill="#FFFFFF" transform="translate(131,65)"/>
<path d="M0 0 C2.59887695 1.90185547 2.59887695 1.90185547 4.98828125 4.3671875 C6.29442383 5.69556641 6.29442383 5.69556641 7.62695312 7.05078125 C8.51318359 7.98277344 9.39941406 8.91476563 10.3125 9.875 C11.67084961 11.26138672 11.67084961 11.26138672 13.05664062 12.67578125 C22.28600688 22.15979817 22.28600688 22.15979817 22.375 27.3125 C22.40335938 28.05113281 22.43171875 28.78976563 22.4609375 29.55078125 C21.0968228 36.79908562 14.13692831 42.29874118 9.1875 47.3125 C8.40568359 48.13556641 7.62386719 48.95863281 6.81835938 49.80664062 C0.29864795 56.4134994 0.29864795 56.4134994 -3.94921875 57.109375 C-7 57 -7 57 -9 55.9375 C-10 54 -10 54 -10.09375 51.41796875 C-8.39197977 46.09993678 -4.51975988 43.11551969 -0.5 39.375 C1.07956486 37.88985178 2.65279332 36.39792743 4.21875 34.8984375 C4.91935547 34.24536621 5.61996094 33.59229492 6.34179688 32.91943359 C8.10266133 30.88116558 8.71730654 29.66086964 9 27 C7.97430096 25.13840185 7.97430096 25.13840185 6.25 23.4375 C5.29480469 22.40302734 5.29480469 22.40302734 4.3203125 21.34765625 C2.61287132 19.6200937 0.87353788 17.92390813 -0.8828125 16.24609375 C-1.3768457 15.77051025 -1.87087891 15.29492676 -2.37988281 14.80493164 C-3.8210417 13.42660577 -5.28129679 12.06833187 -6.7421875 10.7109375 C-9.27282836 7.67241715 -9.83540555 5.91186142 -10 2 C-7.75444172 -2.35076917 -4.16517312 -0.94827264 0 0 Z M-6 2 C-6.43035638 5.9920859 -6.43035638 5.9920859 -4.05859375 8.296875 C-3.19363281 9.10640625 -2.32867187 9.9159375 -1.4375 10.75 C2.46307942 14.49013005 6.12059811 18.29531701 9.625 22.40625 C10.69849686 23.65053045 11.83796959 24.83796959 13 26 C13.08071455 28.82500942 12.46200368 30.46641829 10.61328125 32.6015625 C9.41159217 33.78434861 8.19570487 34.95281918 6.96875 36.109375 C1.88943061 40.98713409 -2.52293765 46.57325776 -7 52 C-5.68 52.66 -4.36 53.32 -3 54 C-0.02439537 51.04909391 2.94792678 48.09493253 5.91723633 45.13769531 C6.92805585 44.13190797 7.93977062 43.12701952 8.95239258 42.12304688 C10.40681856 40.68073517 11.85800615 39.23523328 13.30859375 37.7890625 C14.18314209 36.91975098 15.05769043 36.05043945 15.95874023 35.15478516 C18.55113267 32.41821589 18.94492876 31.50664785 19.35668945 27.71850586 C18.90825336 23.04353657 17.61050417 21.75688551 14.29296875 18.50390625 C13.81177078 18.02549789 13.33057281 17.54708954 12.83479309 17.05418396 C11.81983826 16.051938 10.79648628 15.05813235 9.76538086 14.07250977 C8.18506427 12.56016904 6.63335259 11.0224862 5.08398438 9.47851562 C0.3387918 4.06622678 0.3387918 4.06622678 -6 2 Z " fill="#FFFFFF" transform="translate(162,78)"/>
<path d="M0 0 C0.73828125 2.703125 0.73828125 2.703125 1 6 C-0.51953125 8.421875 -0.51953125 8.421875 -2.8125 10.75 C-4.04033203 12.03003906 -4.04033203 12.03003906 -5.29296875 13.3359375 C-7.13459474 15.14833133 -8.99208527 16.94471422 -10.86328125 18.7265625 C-11.77464844 19.60054687 -12.68601562 20.47453125 -13.625 21.375 C-14.48351562 22.16648437 -15.34203125 22.95796875 -16.2265625 23.7734375 C-18.22409122 25.79462496 -18.22409122 25.79462496 -17.95703125 28.0625 C-16.87840349 30.2461709 -15.69777354 31.81657985 -14.0625 33.625 C-13.44246094 34.31464844 -12.82242188 35.00429687 -12.18359375 35.71484375 C-8.91844815 39.13185659 -5.4908579 42.37788362 -2.0390625 45.60546875 C0.16723874 48.19639339 0.79800122 49.63335359 1 53 C-0.125 55.3125 -0.125 55.3125 -2 57 C-5.25274272 57.48654471 -6.59867819 57.27923904 -9.32421875 55.3828125 C-10.49404297 54.26519531 -10.49404297 54.26519531 -11.6875 53.125 C-12.54988281 52.30644531 -13.41226563 51.48789063 -14.30078125 50.64453125 C-15.19152344 49.77183594 -16.08226563 48.89914063 -17 48 C-18.35158203 46.70642578 -18.35158203 46.70642578 -19.73046875 45.38671875 C-31.01097569 34.40613666 -31.01097569 34.40613666 -31.8125 27.75 C-31.45834917 21.10967186 -26.51567354 17.37378762 -22 13 C-20.85647516 11.84009133 -19.71599304 10.67717724 -18.578125 9.51171875 C-7.94165155 -1.32360859 -7.94165155 -1.32360859 0 0 Z M-11.75 7 C-12.28423584 7.49822266 -12.81847168 7.99644531 -13.36889648 8.50976562 C-17.00100838 11.93884021 -20.39926888 15.5024298 -23.59765625 19.34375 C-25 21 -25 21 -26.63671875 22.52734375 C-28.27742885 24.06076214 -28.27742885 24.06076214 -28.75 27.0625 C-28.43615594 33.07575214 -23.014089 37.02513663 -19 41 C-17.83510355 42.17625803 -16.67108257 43.35338353 -15.5078125 44.53125 C-12.35872512 47.70825102 -9.18514045 50.85916599 -6 54 C-4.68 53.34 -3.36 52.68 -2 52 C-4.87071902 47.77835439 -7.86746261 44.06114438 -11.55078125 40.52734375 C-12.18677246 39.91584473 -12.82276367 39.3043457 -13.47802734 38.67431641 C-14.77674724 37.44032214 -16.08826674 36.21965069 -17.41259766 35.01318359 C-21.8991208 30.74650605 -21.8991208 30.74650605 -22.33203125 27.54296875 C-20.26839325 23.60329621 -17.34396919 20.66286324 -14.25 17.5 C-13.62867188 16.84902344 -13.00734375 16.19804688 -12.3671875 15.52734375 C-8.9601522 11.96936385 -5.49654683 8.46985563 -2 5 C-2.33 4.01 -2.66 3.02 -3 2 C-7.16740781 2 -8.88253226 4.27797385 -11.75 7 Z " fill="#FFFFFF" transform="translate(103,78)"/>
</svg>
